<mxfile host="app.diagrams.net" modified="2021-11-07T23:09:02.844Z" agent="5.0 (Macintosh; Intel Mac OS X 10_15_7) AppleWebKit/537.36 (KHTML, like Gecko) Chrome/95.0.4638.69 Safari/537.36" etag="A4RUOGCsSY61pzIoWw0u" version="15.7.0" type="github" pages="3">
  <diagram id="iCsR_CdoxigqwUeFAkIc" name="Server UML Diagram">
    <mxGraphModel dx="1038" dy="550" grid="1" gridSize="10" guides="1" tooltips="1" connect="1" arrows="1" fold="1" page="1" pageScale="1" pageWidth="850" pageHeight="1100" math="0" shadow="0">
      <root>
        <mxCell id="0" />
        <mxCell id="1" parent="0" />
        <mxCell id="4a9U-WU0iI5Y7Coj8OM2-5" value="BaccaratGame" style="swimlane;fontStyle=1;align=center;verticalAlign=top;childLayout=stackLayout;horizontal=1;startSize=26;horizontalStack=0;resizeParent=1;resizeParentMax=0;resizeLast=0;collapsible=1;marginBottom=0;" parent="1" vertex="1">
          <mxGeometry x="470" y="520" width="220" height="168" as="geometry" />
        </mxCell>
        <mxCell id="4a9U-WU0iI5Y7Coj8OM2-6" value="+ playerHand: ArrayList&lt;Card&gt;&#xa;+ bankerHand: ArrayList&lt;Card&gt;&#xa;+ theDealer: BaccaratDealer&#xa;+ currentBet: double &#xa;+ totalWinnings: double&#xa;" style="text;strokeColor=none;fillColor=none;align=left;verticalAlign=top;spacingLeft=4;spacingRight=4;overflow=hidden;rotatable=0;points=[[0,0.5],[1,0.5]];portConstraint=eastwest;" parent="4a9U-WU0iI5Y7Coj8OM2-5" vertex="1">
          <mxGeometry y="26" width="220" height="84" as="geometry" />
        </mxCell>
        <mxCell id="4a9U-WU0iI5Y7Coj8OM2-7" value="" style="line;strokeWidth=1;fillColor=none;align=left;verticalAlign=middle;spacingTop=-1;spacingLeft=3;spacingRight=3;rotatable=0;labelPosition=right;points=[];portConstraint=eastwest;" parent="4a9U-WU0iI5Y7Coj8OM2-5" vertex="1">
          <mxGeometry y="110" width="220" height="8" as="geometry" />
        </mxCell>
        <mxCell id="4a9U-WU0iI5Y7Coj8OM2-8" value="+ evaluateWinnings(): public double" style="text;strokeColor=none;fillColor=none;align=left;verticalAlign=top;spacingLeft=4;spacingRight=4;overflow=hidden;rotatable=0;points=[[0,0.5],[1,0.5]];portConstraint=eastwest;" parent="4a9U-WU0iI5Y7Coj8OM2-5" vertex="1">
          <mxGeometry y="118" width="220" height="50" as="geometry" />
        </mxCell>
        <mxCell id="4a9U-WU0iI5Y7Coj8OM2-9" value="BaccaratGameLogic" style="swimlane;fontStyle=1;align=center;verticalAlign=top;childLayout=stackLayout;horizontal=1;startSize=26;horizontalStack=0;resizeParent=1;resizeParentMax=0;resizeLast=0;collapsible=1;marginBottom=0;" parent="1" vertex="1">
          <mxGeometry x="410" y="270" width="390" height="160" as="geometry" />
        </mxCell>
        <mxCell id="4a9U-WU0iI5Y7Coj8OM2-31" value="Use" style="endArrow=open;endSize=12;dashed=1;html=1;rounded=0;entryX=0.546;entryY=-0.025;entryDx=0;entryDy=0;entryPerimeter=0;" parent="4a9U-WU0iI5Y7Coj8OM2-9" target="4a9U-WU0iI5Y7Coj8OM2-17" edge="1">
          <mxGeometry width="160" relative="1" as="geometry">
            <mxPoint x="-10" y="26" as="sourcePoint" />
            <mxPoint x="150" y="26" as="targetPoint" />
          </mxGeometry>
        </mxCell>
        <mxCell id="4a9U-WU0iI5Y7Coj8OM2-11" value="" style="line;strokeWidth=1;fillColor=none;align=left;verticalAlign=middle;spacingTop=-1;spacingLeft=3;spacingRight=3;rotatable=0;labelPosition=right;points=[];portConstraint=eastwest;" parent="4a9U-WU0iI5Y7Coj8OM2-9" vertex="1">
          <mxGeometry y="26" width="390" height="8" as="geometry" />
        </mxCell>
        <mxCell id="4a9U-WU0iI5Y7Coj8OM2-12" value="+ whoWon(ArrayList&lt;Card&gt; hand1, ArrayList&lt;Card&gt;&#xa;hand2): public static String&#xa;+ handTotal (ArrayList&lt;Card&gt; hand): public static int &#xa;+ evaluateBankerDraw (ArrayList&lt;Card&gt; hand, Card playerCard): &#xa;public static boolean &#xa;+ evaluatePlayerDraw (ArrayList&lt;Card&gt; hand): public static boolean" style="text;strokeColor=none;fillColor=none;align=left;verticalAlign=top;spacingLeft=4;spacingRight=4;overflow=hidden;rotatable=0;points=[[0,0.5],[1,0.5]];portConstraint=eastwest;" parent="4a9U-WU0iI5Y7Coj8OM2-9" vertex="1">
          <mxGeometry y="34" width="390" height="126" as="geometry" />
        </mxCell>
        <mxCell id="4a9U-WU0iI5Y7Coj8OM2-13" value="BaccaratDealer" style="swimlane;fontStyle=1;align=center;verticalAlign=top;childLayout=stackLayout;horizontal=1;startSize=26;horizontalStack=0;resizeParent=1;resizeParentMax=0;resizeLast=0;collapsible=1;marginBottom=0;" parent="1" vertex="1">
          <mxGeometry x="130" y="524" width="220" height="160" as="geometry" />
        </mxCell>
        <mxCell id="4a9U-WU0iI5Y7Coj8OM2-29" value="Use" style="endArrow=open;endSize=12;dashed=1;html=1;rounded=0;entryX=0.5;entryY=1.095;entryDx=0;entryDy=0;entryPerimeter=0;" parent="4a9U-WU0iI5Y7Coj8OM2-13" target="4a9U-WU0iI5Y7Coj8OM2-20" edge="1">
          <mxGeometry width="160" relative="1" as="geometry">
            <mxPoint x="100" as="sourcePoint" />
            <mxPoint x="260" as="targetPoint" />
          </mxGeometry>
        </mxCell>
        <mxCell id="4a9U-WU0iI5Y7Coj8OM2-14" value="+ deck: ArrayList&lt;Card&gt;" style="text;strokeColor=none;fillColor=none;align=left;verticalAlign=top;spacingLeft=4;spacingRight=4;overflow=hidden;rotatable=0;points=[[0,0.5],[1,0.5]];portConstraint=eastwest;" parent="4a9U-WU0iI5Y7Coj8OM2-13" vertex="1">
          <mxGeometry y="26" width="220" height="34" as="geometry" />
        </mxCell>
        <mxCell id="4a9U-WU0iI5Y7Coj8OM2-15" value="" style="line;strokeWidth=1;fillColor=none;align=left;verticalAlign=middle;spacingTop=-1;spacingLeft=3;spacingRight=3;rotatable=0;labelPosition=right;points=[];portConstraint=eastwest;" parent="4a9U-WU0iI5Y7Coj8OM2-13" vertex="1">
          <mxGeometry y="60" width="220" height="8" as="geometry" />
        </mxCell>
        <mxCell id="4a9U-WU0iI5Y7Coj8OM2-16" value="+ generateDeck(): public void &#xa;+ dealHand(): public ArrayList&lt;Card&gt;&#xa;+ drawOne(): public Card&#xa;+ shuffleDeck(): public void &#xa;+ deckSize(): public int " style="text;strokeColor=none;fillColor=none;align=left;verticalAlign=top;spacingLeft=4;spacingRight=4;overflow=hidden;rotatable=0;points=[[0,0.5],[1,0.5]];portConstraint=eastwest;" parent="4a9U-WU0iI5Y7Coj8OM2-13" vertex="1">
          <mxGeometry y="68" width="220" height="92" as="geometry" />
        </mxCell>
        <mxCell id="4a9U-WU0iI5Y7Coj8OM2-17" value="Card" style="swimlane;fontStyle=1;align=center;verticalAlign=top;childLayout=stackLayout;horizontal=1;startSize=26;horizontalStack=0;resizeParent=1;resizeParentMax=0;resizeLast=0;collapsible=1;marginBottom=0;" parent="1" vertex="1">
          <mxGeometry x="90" y="350" width="280" height="110" as="geometry" />
        </mxCell>
        <mxCell id="4a9U-WU0iI5Y7Coj8OM2-18" value="+ suite: String &#xa;+ value: int " style="text;strokeColor=none;fillColor=none;align=left;verticalAlign=top;spacingLeft=4;spacingRight=4;overflow=hidden;rotatable=0;points=[[0,0.5],[1,0.5]];portConstraint=eastwest;" parent="4a9U-WU0iI5Y7Coj8OM2-17" vertex="1">
          <mxGeometry y="26" width="280" height="34" as="geometry" />
        </mxCell>
        <mxCell id="4a9U-WU0iI5Y7Coj8OM2-19" value="" style="line;strokeWidth=1;fillColor=none;align=left;verticalAlign=middle;spacingTop=-1;spacingLeft=3;spacingRight=3;rotatable=0;labelPosition=right;points=[];portConstraint=eastwest;" parent="4a9U-WU0iI5Y7Coj8OM2-17" vertex="1">
          <mxGeometry y="60" width="280" height="8" as="geometry" />
        </mxCell>
        <mxCell id="4a9U-WU0iI5Y7Coj8OM2-20" value="+ Card(String theSuite, int theValue): constructor&#xa;" style="text;strokeColor=none;fillColor=none;align=left;verticalAlign=top;spacingLeft=4;spacingRight=4;overflow=hidden;rotatable=0;points=[[0,0.5],[1,0.5]];portConstraint=eastwest;" parent="4a9U-WU0iI5Y7Coj8OM2-17" vertex="1">
          <mxGeometry y="68" width="280" height="42" as="geometry" />
        </mxCell>
        <mxCell id="4a9U-WU0iI5Y7Coj8OM2-21" value="Use" style="endArrow=open;endSize=12;dashed=1;html=1;rounded=0;exitX=0.5;exitY=0;exitDx=0;exitDy=0;" parent="1" source="4a9U-WU0iI5Y7Coj8OM2-5" edge="1">
          <mxGeometry width="160" relative="1" as="geometry">
            <mxPoint x="510" y="500" as="sourcePoint" />
            <mxPoint x="580" y="430" as="targetPoint" />
          </mxGeometry>
        </mxCell>
        <mxCell id="4a9U-WU0iI5Y7Coj8OM2-28" value="" style="endArrow=block;dashed=1;endFill=0;endSize=12;html=1;rounded=0;" parent="1" edge="1">
          <mxGeometry width="160" relative="1" as="geometry">
            <mxPoint x="350" y="610" as="sourcePoint" />
            <mxPoint x="470" y="610" as="targetPoint" />
          </mxGeometry>
        </mxCell>
        <mxCell id="4a9U-WU0iI5Y7Coj8OM2-30" value="" style="endArrow=block;dashed=1;endFill=0;endSize=12;html=1;rounded=0;exitX=0.579;exitY=1.04;exitDx=0;exitDy=0;exitPerimeter=0;entryX=0.75;entryY=0;entryDx=0;entryDy=0;" parent="1" source="4a9U-WU0iI5Y7Coj8OM2-12" target="4a9U-WU0iI5Y7Coj8OM2-5" edge="1">
          <mxGeometry width="160" relative="1" as="geometry">
            <mxPoint x="520" y="510" as="sourcePoint" />
            <mxPoint x="636" y="510" as="targetPoint" />
          </mxGeometry>
        </mxCell>
        <mxCell id="zEhGB48hmVTYjzrObQU9-6" value="&lt;p style=&quot;margin: 0px ; margin-top: 4px ; text-align: center&quot;&gt;&lt;i&gt;&amp;lt;&amp;lt;Interface&amp;gt;&amp;gt;&lt;/i&gt;&lt;br&gt;&lt;b&gt;Serializable&lt;/b&gt;&lt;/p&gt;&lt;hr size=&quot;1&quot;&gt;&lt;p style=&quot;margin: 0px ; margin-left: 4px&quot;&gt;&lt;br&gt;&lt;/p&gt;&lt;hr size=&quot;1&quot;&gt;&lt;p style=&quot;margin: 0px ; margin-left: 4px&quot;&gt;&lt;br&gt;&lt;/p&gt;" style="verticalAlign=top;align=left;overflow=fill;fontSize=12;fontFamily=Helvetica;html=1;" parent="1" vertex="1">
          <mxGeometry x="480" y="760" width="190" height="60" as="geometry" />
        </mxCell>
        <mxCell id="zEhGB48hmVTYjzrObQU9-7" value="BaccaratInfo" style="swimlane;fontStyle=1;align=center;verticalAlign=top;childLayout=stackLayout;horizontal=1;startSize=26;horizontalStack=0;resizeParent=1;resizeParentMax=0;resizeLast=0;collapsible=1;marginBottom=0;" parent="1" vertex="1">
          <mxGeometry x="140" y="770" width="220" height="34" as="geometry" />
        </mxCell>
        <mxCell id="zEhGB48hmVTYjzrObQU9-10" value="" style="line;strokeWidth=1;fillColor=none;align=left;verticalAlign=middle;spacingTop=-1;spacingLeft=3;spacingRight=3;rotatable=0;labelPosition=right;points=[];portConstraint=eastwest;" parent="zEhGB48hmVTYjzrObQU9-7" vertex="1">
          <mxGeometry y="26" width="220" height="8" as="geometry" />
        </mxCell>
        <mxCell id="zEhGB48hmVTYjzrObQU9-12" value="" style="endArrow=block;dashed=1;endFill=0;endSize=12;html=1;rounded=0;" parent="1" edge="1">
          <mxGeometry width="160" relative="1" as="geometry">
            <mxPoint x="360" y="789.5" as="sourcePoint" />
            <mxPoint x="480" y="790" as="targetPoint" />
          </mxGeometry>
        </mxCell>
      </root>
    </mxGraphModel>
  </diagram>
  <diagram id="OC684Z58dfQ8_XJj_3_0" name="Client UML Diagram">
    <mxGraphModel dx="974" dy="550" grid="1" gridSize="10" guides="1" tooltips="1" connect="1" arrows="1" fold="1" page="1" pageScale="1" pageWidth="850" pageHeight="1100" math="0" shadow="0">
      <root>
        <mxCell id="oPg8867OzfuqyguofIma-0" />
        <mxCell id="oPg8867OzfuqyguofIma-1" parent="oPg8867OzfuqyguofIma-0" />
      </root>
    </mxGraphModel>
  </diagram>
  <diagram id="CT1m77pq0zXfNrRqhKED" name="Client Wireframe">
    <mxGraphModel dx="974" dy="550" grid="1" gridSize="10" guides="1" tooltips="1" connect="1" arrows="1" fold="1" page="1" pageScale="1" pageWidth="850" pageHeight="1100" math="0" shadow="0">
      <root>
        <mxCell id="RWVcYVp_fBFJSYoEF-UK-0" />
        <mxCell id="RWVcYVp_fBFJSYoEF-UK-1" parent="RWVcYVp_fBFJSYoEF-UK-0" />
      </root>
    </mxGraphModel>
  </diagram>
</mxfile>
